<?xml version="1.0" standalone="no"?><!DOCTYPE svg PUBLIC "-//W3C//DTD SVG 1.1//EN" "http://www.w3.org/Graphics/SVG/1.1/DTD/svg11.dtd"><svg class="icon" height="512" viewBox="0 0 1024 1024" version="1.1" xmlns="http://www.w3.org/2000/svg"><path d="M513.9 514.2m-497 0a497 497 0 1 0 994 0 497 497 0 1 0-994 0Z" fill="#9E1515" /><path d="M231.7 290.3c1.2 0 1.8 1 1.8 3.1 0 0.9-0.5 1.7-1.4 2.4-0.9 0.7-2 1.1-3.4 1.1-1.5 0-2.9-0.7-4.3-2.2-1.4-1.5-2.1-3.2-2.1-5.1 0-1.9 0.8-3.6 2.5-5.1 1.6-1.5 3.6-2.3 5.8-2.3 2.7 0 5.1 1.2 7.3 3.5s3.3 5 3.3 8c0 3.6-1.4 6.6-4.1 9-2.7 2.4-5.5 3.6-8.4 3.6-7.4 0-14.5-3.2-21.4-9.6-6.9-6.4-14.9-18.2-23.9-35.3l-7.9 8.2-0.3 42.6c3.9 0 8.4-1 13.7-3.1v4.5c-5.1 1.4-10.2 2.1-15.3 2.1-2.3 0-6.9 0.6-13.8 1.7v-4.7l12-0.3-5.1-102.1-10 0.3v-4c7.3-0.2 12.5-0.4 15.6-0.8 3.2-0.4 7.6-1.5 13.2-3.5v4.7l-8.3 2.3c-1 16.1-1.6 34.5-1.8 55.3 10.5-11.3 18.4-21.7 23.7-31.4 5.2-9.7 9.3-20 12.2-30.9l-5.9-4.9 1.6-3c4.4 3.5 8.1 6 11.1 7.3 3 1.4 6.2 2.7 9.7 3.9l-1.6 3.2-7.1-2.2c-8.7 17.9-18.4 33.5-29.2 46.8l10 20c3.2 6.5 6.3 11.8 9.1 16.1 2.9 4.3 6 7.7 9.3 10.4 3.4 2.7 7 4 10.8 4 1.8 0 3.4-1.1 4.8-3.2 1.4-2.2 2.1-4.7 2.1-7.6 0-2.6-0.5-4.8-1.5-6.5-1-1.7-2.4-2.6-4-2.6-2.7 0-4.1 1.6-4.1 4.9 0 1.2 0.3 2.5 0.8 3.7 0.5 1.2 1.1 1.8 1.8 1.8 1.8 0.2 2.6-1.3 2.7-4.1zM270.8 279.2l20.7-22.6c1.7-1.9 2.6-3.4 2.6-4.7 0-2.1-1.2-3.5-3.7-4.1-1.8-0.5-2.6-1.1-2.6-1.9 0-1.1 0.6-1.7 1.7-1.6 0.7 0.1 1.9 0.2 3.6 0.4 1.3 0.2 3.4 0.3 6.4 0.3 4.2 0 7.2-0.1 8.9-0.3 1.7-0.1 2.9-0.2 3.6-0.2 0.9 0 1.4 0.4 1.4 1.3 0 1-0.9 1.8-2.9 2.4-3.6 1-6.4 2.4-8.3 4.2l-5.1 4.9-2.4 2.3-12.6 14 3.1 5.1c9.6 15.6 16.1 25.2 19.2 28.6 3.2 3.4 7.3 5.4 12.5 5.8 1.2 0.1 1.7 0.5 1.7 1.4 0 1.3-0.8 2-2.4 2l-5.6-0.3-3.2 0.1c-2.9 0-4.8 0-5.5 0.1-0.6 0.1-1.1 0.1-1.5 0.1-1.1 0-2.3-0.8-3.5-2.5l-10-13.6c-2.7-3.7-6.8-10-12.2-19l-4.1 4.5v13.7c0 4.9 0.7 8.4 2.2 10.4 1.5 2 4 3 7.5 3 1.3 0 2 0.5 2 1.5 0 1.3-0.6 2-1.9 2-0.3 0-1.8-0.3-4.5-0.8-0.7-0.1-2-0.2-3.8-0.2-6.1 0-9.8 0.1-11 0.3-3.6 0.4-5.7 0.6-6.2 0.6-0.9 0-1.3-0.5-1.3-1.4 0-0.9 0.3-1.5 1-1.7l2.4-1.1c2.6-1.1 3.9-3.5 3.9-7.3l0.1-4.6 0.1-3v-86.9c0-8.3-2.3-12.4-6.9-12.4l-2.5-0.1c-1 0-1.5-0.5-1.5-1.4 0-0.9 0.6-1.6 1.8-2l3.2-1.1c2.5-0.8 4.4-1.5 5.7-2.2l5-2.5c1.3-0.6 2.1-1.2 2.6-1.6 0.6-0.5 1.1-0.7 1.4-0.7 0.7 0 1 0.8 1 2.4l-0.1 3.5-0.1 3.7v83.2zM741.8 768v33.5h2.7l14.3-16.2h7.4l-17.3 18.5 20.4 21.8h-8l-17.1-19.5h-2.4v19.5h-5.9V768h5.9zM801.1 813.4h6v1.5c0 4.2-1.3 7.1-3.8 8.8-2.5 1.7-7 2.5-13.4 2.5-7.4 0-12.3-1.4-14.6-4.1-2.3-2.7-3.5-8.4-3.5-17.1 0-8 1.2-13.4 3.5-16.2s6.9-4.1 13.7-4.1c7.4 0 12.3 1.2 14.6 3.6s3.5 7.4 3.5 15.1v3.2h-29c0 6.4 0.7 10.4 2 12.2s4.6 2.6 9.6 2.6c4.8 0 7.8-0.4 9.3-1.2s2.1-2.6 2.1-5.4v-1.4z m0-11.5V800c0-4.4-0.7-7.2-2.2-8.5-1.4-1.3-4.5-2-9.3-2-4.8 0-7.9 0.8-9.3 2.3-1.4 1.5-2.1 4.9-2.1 10.1h22.9zM816.5 785.3h5.9l-0.3 5.1 0.2 0.1c2.1-3.9 6.5-5.8 13.3-5.8 6 0 10.1 1.5 12.4 4.6 2.3 3 3.4 8.6 3.4 16.8 0 7.6-1.1 12.8-3.4 15.8s-6.3 4.4-12.2 4.4c-6.6 0-11-1.8-13.2-5.4h-0.1V843h-5.9v-57.7z m17.4 4.3c-4.7 0-7.8 1-9.2 3.1-1.4 2-2.2 6.4-2.2 13.1 0 6.2 0.8 10.4 2.3 12.4s4.7 3.1 9.3 3.1c4.4 0 7.4-1 8.8-3 1.4-2 2.1-6.1 2.1-12.4 0-6.9-0.7-11.3-2.1-13.3-1.3-2-4.3-3-9-3zM866.5 768v6.6h-5.9V768h5.9z m0 17.3v40.3h-5.9v-40.3h5.9z" fill="#F7F8F8" /><path d="M715.1 533.4H704c-17.3-109.5-81.7-190.8-158.4-190.8-90 0-163 111.9-163 249.9s73 249.9 163 249.9 163-111.9 163-249.9c0-6.7-0.2-13.3-0.6-19.9h7.1c10.8 0 19.6-8.8 19.6-19.6s-8.8-19.6-19.6-19.6z" fill="#EDEDCC" /><path d="M512.3 293.1c-108.4 0-196.3 37.5-196.3 83.8v83.8h0.7v114c0 4.9 0.4 9.7 1.1 14.5-17.9 10-28.8 23.2-28.8 37.7 0 31.1 50 56.3 111.7 56.3 4.9 0 9.6-0.2 14.3-0.5 3.3 0.3 6.7 0.5 10.2 0.5h42.6c126.7 0 231.8-38.7 241-163V377c-0.2-46.4-88.1-83.9-196.5-83.9z" fill="#27444C" /><path d="M440.2 695.8a6.2 8.6 0 1 0 12.4 0 6.2 8.6 0 1 0-12.4 0Z" fill="#27444C" /><path d="M514.3 695.8a6.2 8.6 0 1 0 12.4 0 6.2 8.6 0 1 0-12.4 0Z" fill="#27444C" /><path d="M498.8 762h-17.4c-2.3 0-4.1-1.8-4.1-4.1v-53.5c0-2.3 1.8-4.1 4.1-4.1s4.1 1.8 4.1 4.1v49.4h13.2c2.3 0 4.1 1.8 4.1 4.1 0.1 2.3-1.8 4.1-4 4.1zM498.8 790.2h-17.4c-2.3 0-4.1-1.8-4.1-4.1s1.8-4.1 4.1-4.1h17.4c2.3 0 4.1 1.8 4.1 4.1 0 2.2-1.9 4.1-4.1 4.1z" fill="#27444C" /><path d="M588.8 733.2m-24.7 0a24.7 24.7 0 1 0 49.4 0 24.7 24.7 0 1 0-49.4 0Z" fill="#9E1515" /><path d="M513.7 455.2c-111.6 0-199.1-35.9-199.1-81.7 0-45.8 87.4-81.7 199.1-81.7s199.1 35.9 199.1 81.7c-0.1 45.8-87.5 81.7-199.1 81.7z m0-155.2c-103.4 0-190.8 33.6-190.8 73.5 0 39.8 87.4 73.5 190.8 73.5s190.8-33.6 190.8-73.5S617.1 300 513.7 300z" fill="#3FB2A4" /><path d="M490.1 633.4c-74.9 0-137-14.2-170.4-38.9-1.8-1.4-2.2-3.9-0.9-5.8 1.3-1.8 3.9-2.2 5.8-0.9 32 23.7 92.3 37.3 165.5 37.3 83.8 0 129.2-6.6 161.7-23.5 2-1 4.5-0.3 5.6 1.8 1 2 0.3 4.5-1.8 5.6-33.8 17.6-80.2 24.4-165.5 24.4z" fill="#3FB2A4" /><path d="M613.5 377.6h-231c-2.3 0-4.1-1.8-4.1-4.1s1.8-4.1 4.1-4.1h231c2.3 0 4.1 1.8 4.1 4.1s-1.8 4.1-4.1 4.1z" fill="#3FB2A4" /><path d="M498.8 401.6c-2.3 0-4.1-1.8-4.1-4.1l-0.7-54.9c0-2.3 1.8-4.1 4.1-4.2h0.1c2.3 0 4.1 1.8 4.1 4.1l0.7 54.9c-0.1 2.3-1.9 4.2-4.2 4.2z" fill="#3FB2A4" /></svg>